<svg width="21" height="21" viewBox="0 0 21 21" fill="none" xmlns="http://www.w3.org/2000/svg">
<path d="M2.34814 14.982C2.34814 14.4759 2.47713 13.9781 2.72294 13.5356L7.87786 4.25675C8.3348 3.43426 9.12986 2.8539 10.0525 2.66938V2.66938C10.4677 2.58633 10.8953 2.58633 11.3105 2.66938V2.66938C12.2331 2.8539 13.0282 3.43426 13.4851 4.25675L18.64 13.5356C18.8858 13.9781 19.0148 14.4759 19.0148 14.982V14.982C19.0148 16.6268 17.6814 17.9602 16.0366 17.9602H5.3264C3.68156 17.9602 2.34814 16.6268 2.34814 14.982V14.982Z" stroke="#f2883d" stroke-width="1.5"/>
<path d="M10.6816 7.54362L10.6816 10.877" stroke="#f2883d" stroke-width="1.5" stroke-linecap="round" stroke-linejoin="round"/>
<path d="M10.6816 13.3769L10.6816 13.7936" stroke="#f2883d" stroke-width="1.5" stroke-linecap="round" stroke-linejoin="round"/>
</svg>
